<?xml version="1.0" encoding="utf-8"?>
<!-- Generator: Adobe Illustrator 23.0.1, SVG Export Plug-In . SVG Version: 6.00 Build 0)  -->
<svg version="1.1" id="Layer_1" xmlns="http://www.w3.org/2000/svg" xmlns:xlink="http://www.w3.org/1999/xlink" x="0px" y="0px"
	 viewBox="0 0 244.915 108.57" style="enable-background:new 0 0 244.915 108.57;" xml:space="preserve">
<style type="text/css">
	.st0{fill:#F4F5F9;}
	.st1{fill:#41464B;}
	.st2{fill:#D9EAF9;}
</style>
<polygon class="st0" points="162.95,108.57 0,108.57 81.966,78.737 244.915,78.737 "/>
<path class="st1" d="M160.604,71.67H92.939c-1.852,0-3.44-1.26-3.859-3.065L74.156,4.443C73.547,1.827,71.246,0,68.56,0H54.896
	c-0.989,0-1.791,0.802-1.791,1.791s0.802,1.791,1.791,1.791H68.56c1.011,0,1.878,0.688,2.107,1.673l14.924,64.162
	c0.799,3.436,3.821,5.836,7.348,5.836h67.665c0.989,0,1.791-0.802,1.791-1.791C162.395,72.473,161.593,71.67,160.604,71.67z"/>
<path class="st1" d="M148.92,78.503l-0.19,0.002c-2.63,0.049-5.084,1.121-6.909,3.017c-1.825,1.895-2.802,4.388-2.752,7.018
	c0.1,5.328,4.517,9.663,9.845,9.663l0.19-0.002c2.63-0.049,5.084-1.121,6.909-3.017c1.825-1.895,2.802-4.388,2.752-7.019
	C158.664,82.838,154.247,78.503,148.92,78.503z M148.914,94.369c-3.253,0-5.951-2.648-6.013-5.902
	c-0.03-1.607,0.567-3.129,1.682-4.287c1.115-1.158,2.613-1.812,4.336-1.843c3.253,0,5.95,2.647,6.013,5.902
	c0.03,1.607-0.567,3.129-1.682,4.287c-1.115,1.158-2.613,1.812-4.219,1.843L148.914,94.369z"/>
<path class="st1" d="M100.324,78.503c-5.432,0-9.85,4.419-9.85,9.85c0,5.432,4.419,9.85,9.85,9.85c5.431,0,9.85-4.419,9.85-9.85
	C110.174,82.922,105.755,78.503,100.324,78.503z M100.324,94.369c-3.317,0-6.016-2.699-6.016-6.016c0-3.317,2.699-6.016,6.016-6.016
	c3.317,0,6.016,2.698,6.016,6.016C106.34,91.67,103.642,94.369,100.324,94.369z"/>
<path class="st1" d="M171.855,17.899h-7.594h-3.948h-19.895h-4.25H95.772h-4.25h-3.455c-1.257,0-2.429,0.563-3.214,1.546
	s-1.076,2.25-0.798,3.478l8.759,38.59c0.734,3.229,3.558,5.483,6.869,5.483h52.563c2.811,0,5.348-1.667,6.463-4.246l16.921-39.104
	c0.552-1.276,0.426-2.73-0.336-3.891C174.53,18.593,173.245,17.899,171.855,17.899z"/>
<path class="st2" d="M172.112,22.123L155.19,61.229c-0.508,1.174-1.664,1.934-2.944,1.934H99.683c-1.508,0-2.796-1.028-3.13-2.499
	l-8.759-38.589c-0.02-0.087-0.001-0.167,0.054-0.237c0.056-0.069,0.129-0.105,0.218-0.105h83.788c0.1,0,0.178,0.042,0.233,0.126
	S172.151,22.031,172.112,22.123z"/>
<g>
	<circle class="st1" cx="120.042" cy="36.258" r="3.89"/>
	<circle class="st1" cx="135.326" cy="36.258" r="3.89"/>
</g>
<g>
	<path class="st1" d="M140.725,55.343c-0.719,0-1.389-0.456-1.627-1.176c-1.376-4.153-6.069-7.054-11.414-7.054
		c-5.345,0-10.038,2.901-11.415,7.054c-0.297,0.899-1.27,1.388-2.166,1.088c-0.898-0.298-1.386-1.268-1.088-2.166
		c1.835-5.537,7.867-9.404,14.668-9.404c6.802,0,12.834,3.867,14.668,9.404c0.298,0.898-0.189,1.868-1.088,2.166
		C141.085,55.314,140.904,55.343,140.725,55.343z"/>
</g>
</svg>
